# xmcd
#
# Track frame offsets:
# 150
# 15793
# 33334
# 51279
# 63897
# 75390
# 97620
# 111203
# 134321
# 150791
# 174066
# 188106
# 208404
# 224926
# 241645
# 269661
#
# Disc length: 3788 seconds
#
#
# Revision: 0
# Processed by: cddbd v1.5.1PL2 Copyright (c) Steve Scherf et al.
# Submitted via: FreeRIP 2.53 
#
DISCID=c70eca10
DTITLE=Ann Rabson, Barrelhouse Chuck, Booty and Nye - The Fifth Annual Blues and Boogie Piano Summit
DYEAR=2003
DGENRE=Boogie Woogie
TTITLE0=Deep Elem Blues
TTITLE1=Euro Blues
TTITLE2=Hociel Blues
TTITLE3=K&M Stomp
TTITLE4=It's You Baby
TTITLE5=Any Old Lonesome Day
TTITLE6=Oakley Boogie
TTITLE7=Worried Life Blues
TTITLE8=He Really Makes It Hard For Me
TTITLE9=Midnight Hour Blues
TTITLE10=Three Hundred Pounds of Heavenly Joy
TTITLE11=I'd Rather Be Sloppy Drunk
TTITLE12=Suitcase Blues
TTITLE13=How Long Has That Train Been Gone
TTITLE14=Chicken A-La-Blues
TTITLE15=Creole Boogie
EXTD=1-2-3 Records 2003
EXTT0=
EXTT1=
EXTT2=
EXTT3=
EXTT4=
EXTT5=
EXTT6=
EXTT7=
EXTT8=
EXTT9=
EXTT10=
EXTT11=
EXTT12=
EXTT13=
EXTT14=
EXTT15=
PLAYORDER=
